PathFileType	4	(X/Y/Z)	 s11c0001.trc
DataRate	CameraRate	NumFrames	NumMarkers	Units	OrigDataRate	OrigDataStartFrame	OrigNumFrames
200	200	7	49	mm	200	501	2000
Frame#	Time	racr			lacr			c7			jug			rlel			rdr			llel			ldr			s2			lic			ric			lasi			rasi			rpsi			lpsi			rgt			lgt			rth1			rth2			rth3			rth4			rlfc			rmfc			rsh1			rsh2			rsh3			rsh4			rlmal			rmmal			rcal			rtoe			rmt5			rmt1			lth1			lth2			lth4			lth3			llfc			lmfc			llmal			lmmal			lcal			lmt1			lmt5			lsh1			lsh2			lsh3			lsh4			ltoe			
		X1	Y1	Z1	X2	Y2	Z2	X3	Y3	Z3	X4	Y4	Z4	X5	Y5	Z5	X6	Y6	Z6	X7	Y7	Z7	X8	Y8	Z8	X9	Y9	Z9	X10	Y10	Z10	X11	Y11	Z11	X12	Y12	Z12	X13	Y13	Z13	X14	Y14	Z14	X15	Y15	Z15	X16	Y16	Z16	X17	Y17	Z17	X18	Y18	Z18	X19	Y19	Z19	X20	Y20	Z20	X21	Y21	Z21	X22	Y22	Z22	X23	Y23	Z23	X24	Y24	Z24	X25	Y25	Z25	X26	Y26	Z26	X27	Y27	Z27	X28	Y28	Z28	X29	Y29	Z29	X30	Y30	Z30	X31	Y31	Z31	X32	Y32	Z32	X33	Y33	Z33	X34	Y34	Z34	X35	Y35	Z35	X36	Y36	Z36	X37	Y37	Z37	X38	Y38	Z38	X39	Y39	Z39	X40	Y40	Z40	X41	Y41	Z41	X42	Y42	Z42	X43	Y43	Z43	X44	Y44	Z44	X45	Y45	Z45	X46	Y46	Z46	X47	Y47	Z47	X48	Y48	Z48	X49	Y49	Z49	
501	2.5050	481.709133	1569.373526	592.983573	452.259602	1596.165435	179.656350	386.812760	1619.648416	386.418472	549.767954	1560.224598	368.566000	484.070803	1310.740123	742.565201	615.605114	1084.471526	888.065777	423.792473	1300.789098	50.001442	549.112627	1062.030811	-127.405825	340.909760	1074.890302	393.357109	509.174714	1162.451101	175.991192	552.902402	1151.511543	567.517362	576.711939	1109.113909	205.346222	609.025578	1111.730103	521.756930	362.326771	1129.860781	448.135634	349.083226	1126.482054	345.428039	506.519768	960.829438	589.271031	442.621968	991.760345	174.613045	516.626243	833.561254	586.161459	536.925171	750.620693	560.623280	513.104308	668.665151	542.236339	570.830352	753.489114	548.238446	508.763334	563.088558	516.968807	503.372923	545.815389	397.246621	463.231763	413.827517	539.109174	478.321451	327.518996	525.136843	448.452411	244.871208	524.908891	504.510871	327.214396	496.074192	431.477729	108.594336	513.498995	463.349127	122.777819	425.997150	386.757229	80.279446	459.349390	667.366025	91.383095	519.010221	590.864339	54.188944	573.930843	609.821285	58.627740	458.448195	471.990622	858.864111	154.618879	491.362761	776.775719	169.376508	527.706057	775.539315	175.045540	465.265711	692.212190	183.583285	460.229631	550.353776	213.386868	474.407275	540.104666	339.537216	405.717193	117.321553	223.425180	436.658405	133.527713	297.720725	369.116324	68.542800	259.851431	592.821187	56.217066	292.016743	569.948315	55.391056	175.013534	423.040424	427.277127	192.544993	441.570740	343.477791	199.512498	415.968613	258.875810	203.078360	473.448609	343.934759	221.757199	660.136989	95.726616	244.014891	
502	2.5100	481.693105	1569.353471	592.984390	452.246596	1596.174639	179.663464	386.812761	1619.648378	386.418478	549.763123	1560.226352	368.584690	484.068207	1310.727854	742.547661	615.636158	1084.462183	888.059861	423.801013	1300.812364	50.008139	549.106112	1062.045336	-127.401578	340.897770	1074.901887	393.358102	509.148167	1162.465437	175.973252	552.888213	1151.507722	567.503490	576.704449	1109.115022	205.328578	609.042433	1111.737201	521.746559	362.326771	1129.860782	448.135634	349.072039	1126.493183	345.423432	506.495835	960.830884	589.269448	442.609432	991.763630	174.599976	516.615228	833.545406	586.147563	536.917245	750.627870	560.638954	513.085969	668.664021	542.234103	570.825245	753.486204	548.247980	508.778603	563.087542	516.975137	503.339706	545.788664	397.239819	463.231413	413.839030	539.105371	478.287409	327.505111	525.132139	448.457405	244.884835	524.915262	504.505935	327.221191	496.070968	431.505859	108.613774	513.487613	463.323404	122.775865	425.984887	386.762396	80.268457	459.339752	667.338670	91.375404	518.987930	590.872196	54.201139	573.947411	609.789781	58.659205	458.452416	471.967846	858.867790	154.596649	491.317337	776.785066	169.320692	527.691253	775.534025	175.017234	465.264959	692.214382	183.584817	460.202364	550.332854	213.393030	474.376567	540.091558	339.527753	405.694704	117.338787	223.426892	436.652531	133.530960	297.740308	369.115737	68.540355	259.860423	592.810922	56.221725	292.021388	569.944236	55.390638	175.010319	423.037860	427.275974	192.542986	441.574173	343.472814	199.504082	415.950576	258.886647	203.071453	473.445292	343.925513	221.754262	660.135838	95.721316	244.015834	
503	2.5150	481.688495	1569.345315	593.009086	452.275368	1596.213320	179.670128	386.818385	1619.659329	386.386407	549.775554	1560.235503	368.596511	484.079585	1310.702694	742.554630	615.645446	1084.438309	888.027166	423.814791	1300.833148	49.989079	549.080420	1062.065529	-127.425636	340.904260	1074.891046	393.326729	509.155049	1162.444885	175.969054	552.868734	1151.515357	567.482850	576.704222	1109.129073	205.321093	609.027458	1111.729344	521.757894	362.303185	1129.873527	448.123605	349.056109	1126.545960	345.466156	506.505830	960.822454	589.262182	442.586513	991.756940	174.609177	516.601356	833.547100	586.151413	536.907240	750.617529	560.632283	513.082921	668.652408	542.229951	570.820875	753.477361	548.242582	508.783430	563.089755	516.973086	503.372901	545.824197	397.251948	463.231656	413.833127	539.124644	478.293422	327.512110	525.140067	448.452485	244.861851	524.904743	504.506669	327.221641	496.096172	431.486213	108.585550	513.495831	463.355059	122.772701	425.979309	386.739906	80.286964	459.342167	667.364993	91.364965	518.989987	590.872784	54.206300	573.952826	609.835601	58.624256	458.483576	471.962800	858.869362	154.602643	491.320665	776.772294	169.348935	527.661886	775.524564	174.986199	465.250489	692.215019	183.585267	460.205081	550.328003	213.377779	474.432407	540.091470	339.529434	405.702736	117.329286	223.418472	436.650973	133.533497	297.729248	369.126394	68.548113	259.871295	592.818289	56.227912	292.012198	569.945647	55.379419	175.000224	423.046565	427.276644	192.542720	441.576675	343.480971	199.513170	415.930600	258.868892	203.066406	473.439573	343.949918	221.739581	660.125868	95.731592	244.010318	
504	2.5200	481.705305	1569.325096	593.013160	452.297369	1596.227337	179.685847	386.823318	1619.676149	386.475893	549.776120	1560.249446	368.595704	484.083849	1310.688954	742.544674	615.679975	1084.398815	887.989786	423.821645	1300.873660	50.010071	549.082631	1062.091396	-127.410698	340.915105	1074.883427	393.326869	509.155519	1162.463196	175.974788	552.873082	1151.530570	567.488816	576.688387	1109.127594	205.318876	609.040350	1111.748838	521.741421	362.303185	1129.873528	448.123604	349.074988	1126.474549	345.422900	506.495602	960.830926	589.270138	442.590759	991.757014	174.607831	516.601511	833.540202	586.156041	536.898111	750.617963	560.635383	513.084454	668.661903	542.233532	570.802186	753.475161	548.231886	508.774744	563.088030	516.979985	503.371207	545.814307	397.255337	463.224427	413.826633	539.110413	478.298308	327.513526	525.141021	448.459846	244.850275	524.902469	504.503219	327.214917	496.103255	431.499603	108.598848	513.507656	463.355603	122.772525	425.979379	386.753252	80.284164	459.339343	667.368485	91.373577	519.005686	590.867327	54.181142	573.944751	609.821012	58.649173	458.466064	471.961994	858.868345	154.607605	491.304919	776.776806	169.356893	527.663345	775.504147	174.998091	465.237728	692.202941	183.566204	460.191285	550.335335	213.374634	474.394609	540.087188	339.525137	405.703634	117.344154	223.408152	436.643610	133.527735	297.728594	369.120593	68.544205	259.866668	592.822543	56.210249	292.008149	569.944674	55.390510	175.009655	423.042359	427.269403	192.541562	441.575145	343.474882	199.512277	415.966735	258.868153	203.077692	473.458560	343.925364	221.760798	660.138472	95.728978	244.016510	
505	2.5250	481.677089	1569.323383	593.032046	452.307191	1596.264602	179.688882	386.823433	1619.670684	386.476778	549.774987	1560.254007	368.628652	484.099238	1310.671016	742.523811	615.714267	1084.389986	887.967562	423.834858	1300.895233	49.988690	549.062946	1062.102673	-127.436976	340.891443	1074.887720	393.322776	509.150926	1162.455303	175.967314	552.864489	1151.521781	567.468023	576.679019	1109.117990	205.307891	609.040342	1111.748836	521.741426	362.305198	1129.883016	448.121137	349.057448	1126.481443	345.414691	506.514492	960.827041	589.255481	442.572397	991.775411	174.627032	516.601439	833.550473	586.140557	536.891795	750.614734	560.626246	513.084129	668.658275	542.227823	570.801239	753.481991	548.253387	508.768992	563.083689	516.967319	503.369661	545.803396	397.249735	463.227109	413.833322	539.106812	478.290899	327.506380	525.121116	448.452850	244.862104	524.908541	504.502351	327.226260	496.094029	431.489142	108.597317	513.507599	463.346964	122.778047	425.987180	386.746117	80.274630	459.361545	667.364967	91.385712	518.996627	590.883806	54.208540	573.940422	609.815201	58.646853	458.469955	471.943479	858.873458	154.590591	491.290500	776.786002	169.329275	527.650103	775.507152	174.993825	465.220827	692.244760	183.590428	460.203358	550.329535	213.377213	474.395601	540.085684	339.527433	405.707770	117.318836	223.404211	436.642541	133.520717	297.721000	369.123623	68.546340	259.862372	592.826703	56.215692	292.010696	569.948637	55.385094	175.010754	423.038053	427.276895	192.540180	441.567482	343.470893	199.521580	415.959899	258.870966	203.065032	473.439064	343.923035	221.756268	660.132537	95.710561	244.013195	
506	2.5300	481.678843	1569.306215	593.032302	452.317988	1596.294363	179.706286	386.799535	1619.655604	386.485247	549.771684	1560.275086	368.620024	484.102891	1310.640221	742.533063	615.723797	1084.351331	887.952064	423.829661	1300.909090	49.977946	549.050540	1062.128394	-127.436121	340.899045	1074.884683	393.290532	509.123007	1162.477673	175.967474	552.864793	1151.526016	567.467341	576.649852	1109.128448	205.296370	609.018901	1111.744609	521.725012	362.303185	1129.873529	448.123604	349.033106	1126.543893	345.459502	506.498248	960.843096	589.256375	442.559195	991.773996	174.619366	516.584887	833.550843	586.147982	536.890036	750.613543	560.624016	513.075558	668.648780	542.232607	570.805300	753.470247	548.231345	508.789823	563.093288	516.985848	503.340991	545.800711	397.244511	463.212012	413.828389	539.109411	478.286404	327.506081	525.119026	448.445218	244.880134	524.918025	504.486826	327.218818	496.068355	431.503410	108.570514	513.496223	463.324424	122.779800	425.992074	386.738414	80.276975	459.328953	667.343390	91.389201	518.985112	590.885075	54.216531	573.943004	609.817238	58.649487	458.466500	471.933032	858.857580	154.591822	491.289622	776.785878	169.328075	527.617416	775.515496	174.941332	465.209155	692.214716	183.561565	460.173393	550.340463	213.378646	474.419103	540.076249	339.515724	405.706343	117.311308	223.410050	436.643278	133.527355	297.729104	369.115001	68.537681	259.858350	592.814686	56.218784	292.015424	569.934891	55.391597	174.999815	423.026140	427.271815	192.535174	441.568522	343.467563	199.520719	415.938284	258.871120	203.062595	473.418352	343.922460	221.756545	660.126215	95.732439	244.007034	
507	2.5350	481.669482	1569.291487	593.049923	452.313096	1596.303549	179.705356	386.823435	1619.670574	386.476796	549.768672	1560.274489	368.644564	484.133359	1310.617842	742.534845	615.762100	1084.330242	887.915839	423.832204	1300.950151	49.983534	549.042774	1062.141371	-127.450227	340.895880	1074.882383	393.297319	509.126647	1162.469745	175.960292	552.890799	1151.541314	567.471823	576.652838	1109.124600	205.292189	609.019400	1111.714936	521.713409	362.308892	1129.863341	448.094639	349.027759	1126.558197	345.441352	506.494979	960.845199	589.248972	442.555342	991.778138	174.602612	516.579250	833.548027	586.140360	536.864598	750.616249	560.620390	513.068733	668.648825	542.225746	570.797057	753.466631	548.244636	508.775221	563.099038	516.978473	503.338286	545.806630	397.243703	463.212365	413.823811	539.112072	478.263972	327.516252	525.132476	448.440071	244.873766	524.914489	504.474196	327.216234	496.089304	431.495749	108.587089	513.507321	463.325869	122.763736	425.976956	386.737082	80.286307	459.340768	667.342077	91.367838	519.003349	590.877837	54.186838	573.937314	609.837313	58.620593	458.476408	471.905185	858.864087	154.584883	491.273663	776.807684	169.291477	527.631997	775.516882	174.936545	465.193352	692.259109	183.578375	460.183565	550.334469	213.375038	474.396656	540.084616	339.520058	405.690690	117.316874	223.406977	436.647639	133.513320	297.714970	369.112679	68.541165	259.855686	592.817091	56.218941	292.014854	569.940795	55.391620	175.013797	423.023069	427.264957	192.537831	441.555861	343.467116	199.518356	415.941790	258.875153	203.059171	473.432856	343.923072	221.753126	660.130130	95.723394	244.013827	
